<?xml version="1.0" standalone="no"?><!DOCTYPE svg PUBLIC "-//W3C//DTD SVG 1.1//EN" "http://www.w3.org/Graphics/SVG/1.1/DTD/svg11.dtd"><svg class="icon" height="512" viewBox="0 0 1024 1024" version="1.1" xmlns="http://www.w3.org/2000/svg"><path d="M796 146.8h15.1c50.4 4.9 87.4 49.7 82.5 100.1-4.9 50.4-49.7 87.4-100.1 82.5-9.6-0.9-18.9-3.3-27.8-7.2-47.1-22-67.4-78-45.5-125.1 0-0.1 0.1-0.2 0.1-0.2 16.3-27.4 44.2-45.9 75.7-50.1z m-50.3 95.3c0 70.2 100.8 75.2 115.9 15 15.1-45.1-30.2-80.2-65.5-75.2-35.3 0-50.4 25.1-50.4 60.2z m-181.4 40.2c48.5-6.8 93.4 27.1 100.2 75.6 0.9 6.5 1.1 13.1 0.6 19.6-0.8 22.5-9.7 43.9-25.2 60.2-55.4 60.2-161.2 20.1-161.2-60.2-2.8-49.8 35.3-92.5 85.1-95.2h0.5z m-55.4 85.2c-1.9 31.3 21.9 58.3 53.3 60.2 0.7 0 1.4 0.1 2.2 0.1 85.6 5 80.6-130.4-5-115.3-26 7.2-45.6 28.6-50.5 55z m236.8 45.1c50.1-6.3 95.8 29.2 102.2 79.4 1.3 10.3 0.8 20.8-1.4 30.9-15.1 90.2-156.2 95.3-176.3 5-13.2-44.2 8.4-91.3 50.4-110.3 8-2.7 16.5-4.4 25.1-5z m-45.4 75.2c-25.2 85.2 115.9 100.3 115.9 15 2.4-29.5-19.6-55.4-49.1-57.8-7.3-0.6-14.6 0.3-21.5 2.6-22.6 1.3-41.4 17.9-45.3 40.2z m-30.2 185.5c55.4-15 131-35.1 196.5-50.1 22.9-7.4 46.6-12.5 70.5-15 35.3 10.1 40.3 65.2 20.1 95.3-20.5 20.6-44.3 37.6-70.5 50.1-30.2 15-50.4 30.1-75.6 45.1-55.4 30.1-105.8 65.2-166.2 75.2-40.3 10-95.7-5-131-15-70.5-20.1-136-45.1-226.7-45.1h-65.5c-20.1 0-50.4 5-50.4-15s25.2-15 50.4-15h65.6c85.6 5 151.1 30.1 221.6 45.1 40.3 10 85.6 25.1 120.9 20.1 33.6-6.4 65.9-18.2 95.7-35.1 58.1-26.8 113.6-58.7 166.1-95.3 25.2-15 65.5-40.2 40.3-75.2-80 17.7-159 39.4-236.8 65.2-25.2 5-55.4 20.1-80.6 20.1-14.9 0.4-29.5-3.4-43-9.7-30-13.9-52.7-20.4-82.9-30.4-15.1-5-30.2-15-20.1-30 10.2-15 65.9 4.2 75.5 10 14.2 8.5 14.2 8.5 25.2 15 11.9 7.1 26.5 8.5 40.3 10 18-0.8 31.9-16 31.1-34-0.1-2.1-0.4-4.2-0.9-6.2-5-20.1-35.3-35.1-50.4-40.2-40-25.1-75.3-40.2-110.5-65.2-40.3-20.1-85.6-60.2-151.1-45.1-35.3 10-80.6 40.2-115.9 60.2-10.1 10-20.1 25.1-35.3 20.1-4.5-1.9-8.1-5.5-10.1-10-5-15 20.1-25.1 35.3-35.1 12.7-9.5 26.2-17.9 40.3-25.1 40.3-20.1 65.5-40.2 105.8-45.1 15.1 0 50.4-5 65.5 5 23.3 8.8 45.3 20.6 65.5 35.1 45.3 25.1 80.6 50.2 126 75.2 30.2 10 75.6 25.1 65.5 90.2l-0.2-0.1z" fill="" /><path d="M184.9 805.3h-7.2c-6.6 0-12-5.4-12-12V571.7c0-6.6 5.4-12 12-12h7.2c6.6 0 12 5.4 12 12v221.5c0 6.7-5.4 12.1-12 12.1zM83.8 805.3h-7.2c-6.6 0-12-5.4-12-12V571.7c0-6.6 5.4-12 12-12h7.2c6.6 0 12 5.4 12 12v221.5c0 6.7-5.4 12.1-12 12.1z" fill="" /><path d="M184.9 814.2H76.7c-6.6 0-12-5.4-12-12v-8.4c0-6.6 5.4-12 12-12H185c6.6 0 12 5.4 12 12v8.4c-0.1 6.6-5.5 12-12.1 12zM184.9 592.2H76.7c-6.6 0-12-5.4-12-12v-8.4c0-6.6 5.4-12 12-12H185c6.6 0 12 5.4 12 12v8.4c-0.1 6.6-5.5 12-12.1 12z" fill="" /></svg>