<?xml version="1.0" standalone="no"?><!DOCTYPE svg PUBLIC "-//W3C//DTD SVG 1.1//EN" "http://www.w3.org/Graphics/SVG/1.1/DTD/svg11.dtd"><svg class="icon" height="512" viewBox="0 0 1024 1024" version="1.1" xmlns="http://www.w3.org/2000/svg"><path d="M797.065478 364.05346c-1.277086-2.506077-4.348028-3.5038-6.854105-2.225691-2.508123 1.278109-3.504824 4.348028-2.225691 6.855128 22.296819 43.736107 33.602306 90.981131 33.602306 140.423193 0 170.70794-138.881071 309.589011-309.589011 309.589011S202.410989 679.81403 202.410989 509.10609c0-170.70794 138.881071-309.589011 309.589011-309.589011 50.39783 0 100.419084 12.380982 144.656611 35.803437 2.488681 1.318018 5.571902 0.36839 6.888897-2.119267 1.316995-2.487657 0.36839-5.571902-2.119267-6.888897-45.701878-24.198122-97.372701-36.988426-149.426241-36.988426-85.416392 0-165.720346 33.263591-226.119971 93.662193-60.398602 60.398602-93.662193 140.702556-93.662193 226.119971 0 85.416392 33.263591 165.721369 93.662193 226.118947 60.398602 60.398602 140.703579 93.662193 226.119971 93.662193 85.416392 0 165.720346-33.263591 226.119971-93.662193 60.398602-60.398602 93.66117-140.702556 93.66117-226.118947C831.78114 458.039018 820.102147 409.236522 797.065478 364.05346zM478.396671 487.949234c6.999414-8.277524 10.501168-17.72878 10.501168-28.353768 0-14.33038-4.798283-25.512047-14.392802-33.541931-9.595542-8.029884-22.669302-12.045337-39.22435-12.045337L385.984958 414.008198l0 174.320211 20.261463 0 0-79.19162 22.485107 0 51.14689 79.19162 25.326828 0-55.717999-83.515089C461.757712 501.847779 471.394187 496.225735 478.396671 487.949234zM457.887568 482.760049c-6.670933 5.806239-15.361873 8.710382-26.067702 8.710382L406.246421 491.470431 406.246421 431.674557l26.067702 0c23.721261 0 35.58138 9.720386 35.58138 29.157064C467.89448 469.645356 464.558501 476.953809 457.887568 482.760049zM606.696756 569.488319c-6.714935 3.994987-15.424294 5.991458-26.130124 5.991458-12.353352 0-23.926946-2.552126-34.715663-7.659447l-3.706415 16.678868c10.295484 4.77577 23.349801 7.16519 39.162952 7.16519 15.895015 0 28.990265-3.561106 39.287795-10.686387 10.29446-7.123234 15.442714-16.821107 15.442714-29.094642 0-6.258541-1.340531-11.755742-4.015454-16.492626-2.676969-4.735861-6.692423-8.771781-12.045337-12.107759-5.353938-3.335978-12.272511-6.196119-20.754696-8.586562l-18.407232-5.311982c-8.401344-2.387373-14.003945-4.960988-16.802688-7.720845-2.800789-2.758834-4.199649-5.991458-4.199649-9.698896 0-5.847172 3.046383-10.520611 9.142218-14.022365 6.094812-3.499707 14.372336-5.250584 24.832572-5.250584 9.553587 0 19.724227 1.772366 30.514991 5.311982l4.324492-16.183588c-12.684904-3.540639-24.214495-5.311982-34.591843-5.311982-16.060791 0-28.952402 3.254114-38.669718 9.760295-9.719362 6.507204-14.57802 15.319917-14.57802 26.438139 0 5.107321 1.049912 9.719362 3.15076 13.836123 2.099824 4.119831 5.167696 7.659447 9.203616 10.624988 4.033873 2.964518 8.401344 5.209652 13.095249 6.733355 4.694929 1.524726 12.024871 3.810792 21.99085 6.857175 12.354376 3.78828 20.199041 7.433296 23.535019 10.934027 3.335978 3.501754 5.003967 7.474228 5.003967 11.921517C616.764042 560.201815 613.407598 565.493332 606.696756 569.488319z" /></svg>